<?xml version="1.0" encoding="utf-8"?>
<!-- Generator: Adobe Illustrator 26.3.1, SVG Export Plug-In . SVG Version: 6.00 Build 0)  -->
<svg version="1.1" id="outline" xmlns="http://www.w3.org/2000/svg" xmlns:xlink="http://www.w3.org/1999/xlink" x="0px" y="0px"
	 viewBox="0 0 512 512" enable-background="new 0 0 512 512" xml:space="preserve">
<g>
	<path d="M415.772,352.384c-1.626-13.848-12.047-25.397-25.981-28.184c-3.239-0.648-6.111-2.133-8.426-4.2H400
		c13.233,0,24-10.766,24-24s-10.767-24-24-24h-25.552l-1.123-40.439c2.658,1.608,5.618,2.786,8.796,3.422l24.311,4.862
		c0.521,0.104,1.046,0.155,1.569,0.155c1.833,0,3.629-0.631,5.072-1.813c1.854-1.519,2.928-3.79,2.928-6.187v-48
		c0-2.397-1.075-4.667-2.928-6.187c-1.854-1.52-4.293-2.127-6.641-1.658l-24.311,4.862c-3.706,0.741-7.103,2.235-10.081,4.274
		l-3.404-122.545c-0.479-17.194-12.539-31.809-29.33-35.54L320,22.916V8c0-4.418-3.582-8-8-8h-80c-13.234,0-24,10.766-24,24
		s10.766,24,24,24h80c4.418,0,8-3.582,8-8v-0.694l15.835,3.519c9.621,2.138,16.532,10.513,16.806,20.365l5.8,208.81h-101.71
		c-19.877,0-39.278,3.972-57.2,11.328l-11.751-46.765c-0.517-2.058-1.831-3.826-3.651-4.915c-1.821-1.091-4.001-1.412-6.057-0.894
		l-7.759,1.95L162.094,200h33.02c11.516,0,20.885-9.369,20.885-20.885v-7.183c0-10.845-8.47-19.992-19.283-20.824l-81.642-6.28
		c-5.04-0.389-9.833,1.812-12.826,5.886c-2.992,4.073-3.657,9.306-1.78,13.999l10.461,26.154c2.22,5.549,7.515,9.134,13.491,9.134
		h21.175l9.198,36.603l-7.758,1.95c-4.285,1.077-6.886,5.423-5.809,9.708l15.493,61.656c-0.706,0.621-1.413,1.242-2.108,1.877
		c-3.383-13.026-14.539-22.474-27.945-23.666C123.401,278.75,114.477,272,104,272H40c-13.234,0-24,10.766-24,24
		c0,10.429,6.689,19.322,16,22.624v28.789c0,12.124,3.728,23.668,10.618,33.351C31.005,394.654,24,412.522,24,432
		c0,44.112,35.888,80,80,80s80-35.888,80-80c0-20.587-7.826-39.371-20.65-53.56l4.46-7.581c0.707-1.201,1.444-2.379,2.195-3.545
		l1.858,5.573c3.514,10.541,13.104,17.527,23.967,17.857l-8.417,63.123c-1.148,8.614,1.476,17.305,7.201,23.844
		C200.339,484.25,208.607,488,217.298,488h7.715c3.561,13.786,16.104,24,30.987,24h24c4.418,0,8-3.582,8-8h8c4.418,0,8-3.582,8-8
		s-3.582-8-8-8h-8v-16h8c4.418,0,8-3.582,8-8s-3.582-8-8-8h-8c0-4.418-3.582-8-8-8h-24c-14.884,0-27.426,10.214-30.987,24h-7.715
		c-4.139,0-7.919-1.715-10.645-4.829c-2.727-3.114-3.927-7.088-3.38-11.19l8.868-66.506l44.071-4.007
		C269.773,384.235,280,373.037,280,359.419V320h82.125c4.264,10.046,13.241,17.632,24.528,19.889
		c6.483,1.296,11.462,6.323,12.907,12.559C359.401,356.679,328,390.738,328,432c0,44.112,35.888,80,80,80s80-35.888,80-80
		C488,390.51,456.25,356.305,415.772,352.384z M385.258,196.707L400,193.758v28.483l-14.742-2.949
		C379.894,218.22,376,213.471,376,208S379.894,197.78,385.258,196.707z M304,32h-72c-4.411,0-8-3.589-8-8s3.589-8,8-8h72V32z
		 M116.201,160.962l79.289,6.099c2.529,0.194,4.51,2.334,4.51,4.871v7.183c0,2.694-2.191,4.885-4.885,4.885h-69.699L116.201,160.962
		z M256,464h16v32h-16c-8.822,0-16-7.178-16-16S247.178,464,256,464z M400,288c4.411,0,8,3.589,8,8s-3.589,8-8,8H256.731
		c-42.04,0-81.397,22.51-102.712,58.746l-43.124,73.31c-1.454,2.471-4.037,3.946-6.911,3.946c-1.413,0-2.81-0.383-4.041-1.107
		c-3.802-2.236-5.076-7.149-2.839-10.952l43.124-73.31C164.405,313.533,209.046,288,256.731,288H400z M90.659,407.345l-2.896-2.896
		c1.968-1.164,4.068-2.127,6.276-2.851L90.659,407.345z M104.387,384.007C104.258,384.006,104.129,384,104,384
		c-10.351,0-19.939,3.305-27.788,8.899l-11.425-11.425C75.629,373.041,89.233,368,104,368c3.191,0,6.328,0.239,9.394,0.694
		L104.387,384.007z M82.348,421.661c-2.253,4.71-2.832,9.859-1.927,14.715l-7.248,4.185C72.414,437.834,72,434.965,72,432
		c0-5.927,1.624-11.478,4.444-16.242L82.348,421.661z M88.409,450.239c1.052,0.898,2.19,1.722,3.423,2.447
		c3.688,2.169,7.891,3.316,12.153,3.316c5.78,0,11.304-2.112,15.597-5.768l7.232,4.176c-5.81,5.914-13.889,9.59-22.815,9.59
		s-17.005-3.677-22.815-9.59L88.409,450.239z M136,432c0,2.965-0.414,5.834-1.172,8.561l-5.986-3.456l6.559-11.15
		C135.781,427.914,136,429.93,136,432z M158.694,252.121l15.518-3.899l10.582,42.111c-4.919,2.665-9.689,5.6-14.288,8.791
		L158.694,252.121z M139.431,317.25l1.471,8.825c-5.341,6.352-10.191,13.18-14.465,20.447l-4.442,7.551
		C116.208,352.73,110.19,352,104,352c-18.786,0-36.067,6.526-49.734,17.407C50.19,362.867,48,355.31,48,347.413V320h56
		c10.34,0,19.174-6.573,22.542-15.759C133.08,305.377,138.306,310.497,139.431,317.25z M40,288h64c4.411,0,8,3.589,8,8s-3.589,8-8,8
		H40c-4.411,0-8-3.589-8-8S35.589,288,40,288z M168,432c0,35.29-28.71,64-64,64s-64-28.71-64-64
		c0-14.767,5.041-28.371,13.474-39.213l11.425,11.425C59.305,412.061,56,421.649,56,432c0,26.467,21.533,48,48,48s48-21.533,48-48
		c0-8.589-2.287-16.644-6.261-23.62l9.005-15.309C163.049,403.863,168,417.36,168,432z M264,359.419
		c0,5.288-3.971,9.636-9.237,10.115l-57.166,5.197c-4.723,0.432-9.057-2.41-10.555-6.903l-5.194-15.582
		C201.117,331.971,228.21,320,256.731,320H264V359.419z M376,432c0-14.884,10.214-27.426,24-30.987v17.152
		c-4.774,2.772-8,7.928-8,13.835l-14.828,8.561C376.414,437.834,376,434.965,376,432z M400.018,445.846
		c2.353,1.362,5.074,2.154,7.982,2.154s5.629-0.792,7.982-2.154l14.833,8.564c-5.81,5.914-13.889,9.59-22.815,9.59
		s-17.005-3.677-22.815-9.59L400.018,445.846z M438.828,440.561L424,432c0-5.907-3.226-11.063-8-13.835v-17.152
		c13.786,3.561,24,16.104,24,30.987C440,434.965,439.586,437.834,438.828,440.561z M408,496c-35.29,0-64-28.71-64-64
		c0-32.579,24.475-59.531,56-63.482v16.162c-22.671,3.821-40,23.58-40,47.321c0,26.467,21.533,48,48,48s48-21.533,48-48
		c0-23.741-17.329-43.499-40-47.321v-16.162c31.525,3.951,56,30.903,56,63.482C472,467.29,443.29,496,408,496z"/>
	<path d="M298.601,64.435c-3.542-1.219-7.453,0.184-9.415,3.373l-64,104c-1.519,2.468-1.584,5.565-0.17,8.095
		c1.414,2.53,4.085,4.098,6.983,4.098h44.9l-20.49,61.47c-1.235,3.705,0.385,7.76,3.833,9.593c1.19,0.633,2.478,0.937,3.751,0.937
		c2.417,0,4.786-1.096,6.345-3.123l80-104c1.858-2.416,2.183-5.677,0.836-8.412C349.831,137.732,347.048,136,344,136h-47.062
		l7.013-63.117C304.365,69.162,302.142,65.652,298.601,64.435z M327.753,152L286.6,205.5l8.99-26.97
		c0.813-2.439,0.404-5.121-1.1-7.208c-1.503-2.086-3.918-3.322-6.49-3.322h-41.684l37.791-61.41l-4.059,36.527
		c-0.251,2.261,0.473,4.523,1.99,6.219c1.518,1.695,3.686,2.665,5.961,2.665H327.753z"/>
</g>
</svg>
