<?xml version="1.0" encoding="utf-8"?>
<!-- Generator: Adobe Illustrator 23.0.2, SVG Export Plug-In . SVG Version: 6.00 Build 0)  -->
<svg version="1.1" id="Layer_1" xmlns="http://www.w3.org/2000/svg" xmlns:xlink="http://www.w3.org/1999/xlink" x="0px" y="0px"
	 viewBox="0 0 393.1211 250.5743" enable-background="new 0 0 393.1211 250.5743" xml:space="preserve">
<g>
	<rect x="280.4551" y="206.9161" width="112.666" height="4"/>
	<rect x="366.2871" y="140.2911" width="26.834" height="2.75"/>
	<path d="M221.8848,123.4219c4.7724,0,9.247,1.292,13.1015,3.5352l-14.5781,21.2715c4.961,0.458,9.7295,1.5879,14.2168,3.2949
		h13.3125c-0.166,2.2236-0.6113,4.3701-1.3017,6.4062c1.5673,1.1075,3.0732,2.295,4.5126,3.5586
		c1.2676-3.1064,2.0547-6.457,2.2706-9.9648h10.9668c-0.918-1.1484-1.5577-2.498-1.8721-3.9375h-9.0947
		c-0.5723-9.3086-5.1748-17.5225-12.086-22.9277l8.0547-11.752l2.6943-0.8379l10.834,30.0655l1.9864-6.0997l-9.0577-25.1377
		l8.1641-2.541l-4.9932-2.5693l-4.5068,1.4033l-0.8271-2.2959c-0.2139-0.0517-0.417-0.0967-0.6397-0.1533
		c-1.3506-0.3408-2.7353-0.7666-4.0771-1.3223l1.7812,4.9434l-3.1797,0.9902c-0.418,0.1289-0.791,0.4043-1.039,0.7676
		l-8.4356,12.3076c-4.7393-2.8369-10.2812-4.4717-16.207-4.4717c-8.709,0-16.5948,3.5245-22.3115,9.2227l2.0058,5.9502
		C206.374,127.212,213.6943,123.4219,221.8848,123.4219z M247.9375,147.586h-22.3183l12.6113-18.4004
		C243.7129,133.5928,247.3818,140.1602,247.9375,147.586z"/>
	<path d="M215.667,174.9376l1.999,5.9316c1.3809,0.1846,2.7871,0.2891,4.2188,0.2891c5.8105,0,11.251-1.5752,15.9287-4.3125
		c-1.5176-1.3399-3.1504-2.5528-4.8906-3.6075c-3.3555,1.5704-7.0948,2.4532-11.0381,2.4532
		C219.7422,175.6915,217.6611,175.4268,215.667,174.9376z"/>
	<path d="M306.2481,81.6226l2.8857,8.563l-24.2129,7.5371l3.4766,1.7891c0.4756,0.2441,0.9179,0.5273,1.3349,0.8359l20.6582-6.4297
		l1.8487,5.4859l-23.5362,24.9751l-2.8535,8.7666l27.8145-29.5137l5.6152,16.6631c-11.5332,4.7099-19.6641,16.0332-19.6641,29.2597
		c0,17.4532,14.1485,31.6036,31.5997,31.6036c17.4531,0,31.6035-14.1504,31.6035-31.6036c0-17.4511-14.1504-31.5996-31.6035-31.5996
		c-2.8389,0-5.5889,0.3809-8.2061,1.083L310.6484,82.358l-4.4648-1.7359C306.1221,80.9464,306.1358,81.2891,306.2481,81.6226z
		 M331.2149,123.4219c14.4111,0,26.1367,11.7227,26.1367,26.1328c0,14.4122-11.7256,26.1368-26.1367,26.1368
		c-14.4102,0-26.1348-11.7246-26.1348-26.1368c0-10.7988,6.5849-20.0878,15.9492-24.0654l8.3203,24.6924
		c0.2774,0.8242,1.043,1.3418,1.8653,1.3418c0.2089,0,0.4199-0.0332,0.6289-0.1035c1.0293-0.3457,1.5839-1.4629,1.2363-2.4922
		v-0.002l-8.3213-24.6953C326.8242,123.7032,328.9873,123.4219,331.2149,123.4219z"/>
	<path d="M320.875,79.2969c-0.081,0.2095-0.1865,0.4029-0.2861,0.6001c2.3369-0.2256,4.1709-2.1709,4.1709-4.5683
		c0-2.5469-2.0655-4.6114-4.6133-4.6114c-0.7627,0-1.4717,0.2027-2.1055,0.5308C320.7949,72.8389,322.0645,76.2452,320.875,79.2969z
		"/>
	<path d="M271.0449,28.6036c-1.8476,7.937,3.0889,15.8701,11.0254,17.7173c7.9375,1.8486,15.8692-3.0874,17.7168-11.0245
		c1.8496-7.9365-3.0879-15.8681-11.0234-17.7158C280.8262,15.732,272.8926,20.6685,271.0449,28.6036z"/>
	<path d="M312.8613,81.8106c0.625,0.2441,1.2686,0.3594,1.9004,0.3594c2.1016,0,4.085-1.2715,4.8926-3.3472
		c1.0508-2.7012-0.2881-5.7422-2.9883-6.793l-47.2285-18.3671c-2.7012-1.0494-5.7422,0.288-6.793,2.9897
		c-1.0507,2.7002,0.2881,5.7412,2.9883,6.793L312.8613,81.8106z"/>
	<path d="M250.1983,102.502c1.0507,0.3906,2.121,0.7022,3.164,0.9649c2.1553,0.5449,3.8877,0.8925,5.3115,0.666l15.4131,7.9336
		l-10.0849,30.9707c-1.4014,4.3066,0.9531,8.9336,5.2597,10.3379c0.8428,0.2734,1.6973,0.4043,2.5381,0.4043
		c3.4561,0,6.669-2.1993,7.7979-5.6641l12.2422-37.6074c1.25-3.836-0.4571-7.9844-4.043-9.8301l-22.5733-11.6172
		c2.0918-7.4839,5.6924-14.855,8.7217-20.9741l-8.789-3.418c-3.3692-1.3139-5.045-5.1225-3.7344-8.4907
		c0.9883-2.542,3.3896-4.1851,6.1152-4.1851c0.8125,0,1.6133,0.1499,2.377,0.4473l8.1181,3.1572
		c-0.1347-3.4184-1.4873-6.4863-4.208-7.9853c-5.0537-2.7871-13.6797-1.9302-19.3369,6.5058
		c-7.7099,11.6446-10.8467,19.7227-12.9463,34.2417c-0.1787,2.6446,0.0977,4.8096,0.6973,6.5996h-1.377h-0.875
		c-1.0869,0-1.9687,0.8809-1.9687,1.9688v3.6074c0,1.086,0.8818,1.9668,1.9687,1.9668h7.0518H250.1983z"/>
	<path d="M96.4863,205.2891h16.7608c-1.4043-1.7558-2.3828-3.8183-2.8633-6.0195H96.4863
		c-0.875-14.2266-7.9091-26.7793-18.4697-35.041l12.3076-17.9571l4.1192-1.2812l16.5556,45.9473l3.0352-9.3233l-13.8428-38.4131
		l12.4805-3.8857l-7.6289-3.9258l-6.8926,2.1455l-1.2646-3.5097c-0.3262-0.0782-0.6368-0.1485-0.9776-0.2344
		c-2.0605-0.5196-4.1767-1.1582-6.2246-2.0059l2.7168,7.541L87.543,140.84c-0.6406,0.1953-1.209,0.6172-1.5899,1.1738
		l-12.8906,18.8047c-7.2422-4.3359-15.7129-6.834-24.7676-6.834C21.6211,153.9844,0,175.6075,0,202.2774
		c0,26.6738,21.6211,48.2969,48.2949,48.2969C73.9531,250.5743,94.9297,230.5587,96.4863,205.2891z M73.2744,171.1485
		c8.378,6.7363,13.9834,16.7734,14.834,28.1211H54.001L73.2744,171.1485z M8.3555,202.2774
		c0-22.0215,17.916-39.9375,39.9394-39.9375c7.293,0,14.1309,1.9746,20.0215,5.4043l-22.5049,32.834
		c-0.6259,0.918-0.6963,2.1211-0.1767,3.1015c0.5176,0.9844,1.5469,1.6094,2.6621,1.6094h39.8115
		c-1.5459,20.6231-18.8057,36.9317-39.8135,36.9317C26.2715,242.2208,8.3555,224.3028,8.3555,202.2774z"/>
	<path d="M197.1328,157.5606c-17.623,7.1992-30.0488,24.5039-30.0488,44.7168c0,26.6738,21.6221,48.2969,48.2891,48.2969
		c26.6718,0,48.2978-21.6231,48.2978-48.2969c0-26.6699-21.626-48.293-48.2978-48.293c-4.3389,0-8.5411,0.5821-12.5411,1.6543
		L183.9443,99.588l-6.8232-2.6534c-0.0947,0.4956-0.0742,1.0196,0.0977,1.5284l4.4101,13.0859l-37.0029,11.5185l5.3135,2.7354
		c0.7255,0.373,1.4013,0.8047,2.0371,1.2764l31.5732-9.8291l2.8252,8.3867l-35.9668,38.166l-4.3623,13.3975l42.5068-45.1026
		L197.1328,157.5606z M215.3731,162.34c22.0234,0,39.9433,17.916,39.9433,39.9375c0,22.0254-17.9199,39.9434-39.9433,39.9434
		c-22.0215,0-39.9375-17.918-39.9375-39.9434c0-16.5019,10.0615-30.6992,24.373-36.7773l12.7158,37.7382
		c0.4219,1.2559,1.5928,2.0508,2.8487,2.0508c0.3203,0,0.6425-0.0527,0.9609-0.1601c1.5752-0.5293,2.4219-2.2364,1.8906-3.8086
		v-0.002l-12.7178-37.7422C208.6641,162.7715,211.9688,162.34,215.3731,162.34z"/>
	<path d="M199.5713,94.9102c-0.127,0.3281-0.2754,0.6426-0.4326,0.9502c3.5752-0.3423,6.3721-3.3515,6.3721-7.0166
		c0-3.8906-3.1573-7.0469-7.0518-7.0469c-1.1719,0-2.2734,0.2901-3.2461,0.7959C199.4404,85.0162,201.3916,90.2359,199.5713,94.9102
		z"/>
	<path d="M123.4209,17.4395c-2.8223,12.1284,4.7207,24.2505,16.8496,27.0737c12.1299,2.8267,24.2529-4.7168,27.0742-16.8466
		c2.8272-12.1294-4.7177-24.251-16.8447-27.0738C138.3692-2.2324,126.2461,5.3116,123.4209,17.4395z"/>
	<path d="M187.3252,98.752c0.9561,0.3706,1.9404,0.5449,2.9053,0.5449c3.2109,0,6.2441-1.9394,7.4765-5.1113
		c1.6065-4.1289-0.4394-8.7773-4.5664-10.3828l-72.1748-28.0689c-4.1299-1.6044-8.7763,0.44-10.3818,4.5699
		c-1.6055,4.1264,0.4375,8.7749,4.5684,10.3794L187.3252,98.752z"/>
	<path d="M91.5537,130.3712c1.6104,0.5986,3.249,1.0732,4.8447,1.4746c3.293,0.832,5.9405,1.3632,8.1172,1.0175l23.5547,12.1231
		l-15.414,47.3301c-2.1387,6.584,1.4589,13.6543,8.04,15.8007c1.2871,0.418,2.5937,0.6172,3.8779,0.6172
		c5.2813,0,10.1914-3.3632,11.918-8.6562l18.708-57.4727c1.9111-5.8633-0.6982-12.2011-6.1787-15.0215l-34.4961-17.7539
		c3.1934-11.4272,8.7002-22.7055,13.3271-32.0532l-13.4306-5.2226c-5.1494-2.0069-7.709-7.8301-5.707-12.9766
		c1.5097-3.8843,5.1796-6.3955,9.3457-6.3955c1.2421,0,2.4648,0.23,3.6308,0.6836l12.4082,4.8257
		c-0.2051-5.2246-2.2734-9.9131-6.4336-12.2041c-7.7207-4.2593-20.9004-2.9502-29.5468,9.9404
		C86.334,74.2252,81.542,86.5684,78.334,108.7579c-0.2734,4.04,0.1455,7.3515,1.0615,10.0859h-2.1269H75.957
		c-1.6601,0-3.0078,1.3496-3.0078,3.0098v5.5136c0,1.6583,1.3477,3.004,3.0078,3.004h6.8399H91.5537z"/>
</g>
</svg>
