<svg viewBox="0 0 48 48" xmlns="http://www.w3.org/2000/svg" xmlns:xlink="http://www.w3.org/1999/xlink" >
<defs>



 <path fill="#000000" id="i-462" d="M38,20c-0.645,0-1.272,0.07-1.879,0.201L33.388,12H37c0.552,0,1,0.449,1,1h2c0-1.654-1.346-3-3-3h-6.388l1.333,4H16.618 l-1-2H18v-2h-8v2h3.382l1.517,3.033l-2.295,5.354C11.778,20.137,10.905,20,10,20c-4.962,0-9,4.037-9,9s4.038,9,9,9 c4.624,0,8.441-3.508,8.941-8h4.555l9.586-12.59l1.145,3.43C31.146,22.271,29,25.387,29,29c0,4.963,4.037,9,9,9s9-4.037,9-9 S42.963,20,38,20z M10,36c-3.86,0-7-3.141-7-7s3.14-7,7-7c0.626,0,1.229,0.09,1.807,0.244L8.483,30h8.437 C16.433,33.387,13.52,36,10,36z M11.517,28l2.128-4.965C15.382,24.1,16.618,25.898,16.92,28H11.517z M18.941,28 c-0.325-2.924-2.057-5.426-4.502-6.82l1.631-3.805L21.382,28H18.941z M23.177,27.117L17.618,16h14.023L23.177,27.117z M38,36 c-3.859,0-7-3.141-7-7c0-2.732,1.576-5.096,3.863-6.25l2.188,6.566l1.896-0.633l-2.188-6.566C37.163,22.043,37.576,22,38,22 c3.859,0,7,3.141,7,7S41.859,36,38,36z"/> 
</defs>

<use x="0" y="0" xlink:href="#i-462"/>

</svg>