<?xml version="1.0" encoding="UTF-8" standalone="no"?> <svg width="64" height="64" viewBox="0 0 64 64" fill="none" xmlns="http://www.w3.org/2000/svg">
<path d="M60 52C59.1376 52.0081 58.2868 52.1995 57.504 52.5615C56.7213 52.9236 56.0245 53.448 55.46 54.1C55.1677 54.4763 54.7953 54.7829 54.3698 54.9973C53.9443 55.2118 53.4764 55.3289 53 55.34C51.46 55.34 50.79 54.17 49.67 53.34L53.41 43.61C53.5409 43.2665 53.5421 42.8871 53.4132 42.5428C53.2843 42.1986 53.0343 41.9131 52.71 41.74L48.71 39.64V20.39C48.71 19.9922 48.552 19.6107 48.2707 19.3294C47.9894 19.0481 47.6078 18.89 47.21 18.89H33.5V14.55H41C41.3978 14.55 41.7794 14.392 42.0607 14.1107C42.342 13.8294 42.5 13.4479 42.5 13.05V7.16003C42.5 6.76221 42.342 6.38068 42.0607 6.09937C41.7794 5.81807 41.3978 5.66003 41 5.66003H32C31.6022 5.66003 31.2206 5.81807 30.9393 6.09937C30.658 6.38068 30.5 6.76221 30.5 7.16003V18.89H16.79C16.3922 18.89 16.0106 19.0481 15.7293 19.3294C15.448 19.6107 15.29 19.9922 15.29 20.39V39.6L11.29 41.7C10.9657 41.8731 10.7157 42.1585 10.5868 42.5028C10.4579 42.8471 10.4591 43.2265 10.59 43.57L14.33 53.29C13.2 54.16 12.54 55.38 10.99 55.34C10.5117 55.3279 10.0423 55.2084 9.61645 54.9903C9.19062 54.7722 8.81931 54.4611 8.53 54.08C7.96476 53.4329 7.26879 52.913 6.48796 52.5545C5.70713 52.1959 4.85918 52.007 4 52C3.60218 52 3.22064 52.1581 2.93934 52.4394C2.65804 52.7207 2.5 53.1022 2.5 53.5C2.5 53.8979 2.65804 54.2794 2.93934 54.5607C3.22064 54.842 3.60218 55 4 55C4.47828 55.0121 4.94772 55.1317 5.37355 55.3498C5.79938 55.5679 6.17069 55.879 6.46 56.26C7.02553 56.9094 7.72294 57.4308 8.50579 57.7894C9.28863 58.1481 10.1389 58.3358 11 58.34C11.8622 58.3307 12.7126 58.1388 13.4952 57.7768C14.2777 57.4148 14.9747 56.8911 15.54 56.24C15.8168 55.846 16.1843 55.5243 16.6117 55.3022C17.039 55.0802 17.5134 54.9643 17.995 54.9643C18.4766 54.9643 18.951 55.0802 19.3783 55.3022C19.8057 55.5243 20.1732 55.846 20.45 56.24C21.0133 56.8919 21.7103 57.4148 22.4937 57.7733C23.2771 58.1317 24.1285 58.3172 24.99 58.3172C25.8515 58.3172 26.7029 58.1317 27.4863 57.7733C28.2697 57.4148 28.9667 56.8919 29.53 56.24C29.8065 55.8439 30.1745 55.5205 30.6028 55.2971C31.0311 55.0738 31.507 54.9571 31.99 54.9571C32.473 54.9571 32.9489 55.0738 33.3772 55.2971C33.8055 55.5205 34.1735 55.8439 34.45 56.24C35.0133 56.8919 35.7103 57.4148 36.4937 57.7733C37.2771 58.1317 38.1285 58.3172 38.99 58.3172C39.8515 58.3172 40.7029 58.1317 41.4863 57.7733C42.2697 57.4148 42.9667 56.8919 43.53 56.24C43.8065 55.8439 44.1745 55.5205 44.6028 55.2971C45.0311 55.0738 45.507 54.9571 45.99 54.9571C46.473 54.9571 46.9489 55.0738 47.3772 55.2971C47.8055 55.5205 48.1735 55.8439 48.45 56.24C49.0133 56.8936 49.7109 57.418 50.4952 57.7775C51.2796 58.1369 52.1322 58.323 52.995 58.323C53.8578 58.323 54.7104 58.1369 55.4948 57.7775C56.2791 57.418 56.9767 56.8936 57.54 56.24C57.8313 55.8627 58.2035 55.5554 58.6292 55.3408C59.055 55.1262 59.5234 55.0098 60 55C60.3978 55 60.7794 54.842 61.0607 54.5607C61.342 54.2794 61.5 53.8979 61.5 53.5C61.5 53.1022 61.342 52.7207 61.0607 52.4394C60.7794 52.1581 60.3978 52 60 52ZM39.54 11.55H33.54V8.66003H39.54V11.55ZM18.29 21.89H45.71V38L32.71 31.15C32.494 31.037 32.2538 30.978 32.01 30.978C31.7662 30.978 31.526 31.037 31.31 31.15L18.29 38V21.89ZM41.45 54.08C41.1735 54.4761 40.8055 54.7996 40.3772 55.0229C39.9489 55.2463 39.473 55.3629 38.99 55.3629C38.507 55.3629 38.0311 55.2463 37.6028 55.0229C37.1745 54.7996 36.8065 54.4761 36.53 54.08C35.9667 53.4282 35.2697 52.9052 34.4863 52.5468C33.7029 52.1884 32.8515 52.0028 31.99 52.0028C31.1285 52.0028 30.2771 52.1884 29.4937 52.5468C28.7103 52.9052 28.0133 53.4282 27.45 54.08C27.1735 54.4761 26.8055 54.7996 26.3772 55.0229C25.9489 55.2463 25.473 55.3629 24.99 55.3629C24.507 55.3629 24.0311 55.2463 23.6028 55.0229C23.1745 54.7996 22.8065 54.4761 22.53 54.08C21.8554 53.3251 21.0054 52.7478 20.0549 52.399C19.1045 52.0502 18.0828 51.9407 17.08 52.08L13.88 43.77L32 34.2L50.12 43.74L46.92 52.05C45.9116 51.9127 44.8849 52.0261 43.9308 52.3801C42.9767 52.7342 42.1246 53.3181 41.45 54.08V54.08Z" fill="black"/>
</svg>
