<svg xmlns="http://www.w3.org/2000/svg" viewBox="0 0 600 600" role="img" aria-labelledby="title desc">
  <title id="title">Logo Broker de seguros Daniel Martinez</title>
  <desc id="desc">Monograma D M con anillos decorativos y trazo central</desc>
  <rect width="600" height="600" fill="none"/>
  <g fill="none" stroke="#111" stroke-width="4.5" stroke-linecap="round" opacity="0.96">
    <ellipse cx="300" cy="300" rx="290" ry="258"/>
    <ellipse cx="300" cy="300" rx="290" ry="258" transform="rotate(9 300 300)"/>
    <ellipse cx="300" cy="300" rx="290" ry="258" transform="rotate(18 300 300)"/>
    <ellipse cx="300" cy="300" rx="290" ry="258" transform="rotate(27 300 300)"/>
    <ellipse cx="300" cy="300" rx="290" ry="258" transform="rotate(36 300 300)"/>
    <ellipse cx="300" cy="300" rx="290" ry="258" transform="rotate(45 300 300)"/>
    <ellipse cx="300" cy="300" rx="290" ry="258" transform="rotate(54 300 300)"/>
    <ellipse cx="300" cy="300" rx="290" ry="258" transform="rotate(63 300 300)"/>
    <ellipse cx="300" cy="300" rx="290" ry="258" transform="rotate(72 300 300)"/>
    <ellipse cx="300" cy="300" rx="290" ry="258" transform="rotate(81 300 300)"/>
  </g>
  <circle cx="300" cy="300" r="220" fill="#fff" stroke="#111" stroke-width="4.5"/>
  <line x1="300" y1="190" x2="300" y2="410" stroke="#111" stroke-width="6" stroke-linecap="round"/>
  <text x="208" y="346" text-anchor="middle" font-size="126" font-family="Georgia, 'Times New Roman', serif" fill="#111">D</text>
  <text x="392" y="346" text-anchor="middle" font-size="126" font-family="Georgia, 'Times New Roman', serif" fill="#111">M</text>
</svg>
