<?xml version="1.0" encoding="UTF-8" standalone="no"?> <svg xmlns="http://www.w3.org/2000/svg" viewBox="0 0 64 64"><title>2</title><g id="Layer_43" data-name="Layer 43"><path d="M59.89,51.31,35.57,9.19a4.12,4.12,0,0,0-7.14,0L4.11,51.31A4.12,4.12,0,0,0,7.68,57.5H56.32a4.12,4.12,0,0,0,3.57-6.19Zm-3.46,2.12a.11.11,0,0,1-.11.06H7.68a.12.12,0,0,1-.11-.19L31.89,11.19a.12.12,0,0,1,.21,0L56.43,53.31A.11.11,0,0,1,56.43,53.44Z"/><path d="M32,20.38a2,2,0,0,0-2,2V40.5a2,2,0,0,0,4,0V22.38A2,2,0,0,0,32,20.38Z"/><path d="M33.85,46.61a1.68,1.68,0,0,0-.19-.35,1.75,1.75,0,0,0-.24-.3,2.4,2.4,0,0,0-.31-.25,2.18,2.18,0,0,0-.34-.18,1.67,1.67,0,0,0-.38-.11,2,2,0,0,0-1.81.54,1.75,1.75,0,0,0-.24.3,2.36,2.36,0,0,0-.19.35A2.53,2.53,0,0,0,30,47a1.73,1.73,0,0,0,0,.4,2,2,0,0,0,.58,1.41,2,2,0,0,0,2.84,0A2,2,0,0,0,34,47.38a1.76,1.76,0,0,0,0-.4A1.72,1.72,0,0,0,33.85,46.61Z"/></g></svg>